<?xml version="1.0" standalone="no"?>
<!DOCTYPE svg PUBLIC "-//W3C//DTD SVG 20010904//EN"
 "http://www.w3.org/TR/2001/REC-SVG-20010904/DTD/svg10.dtd">
<svg version="1.0" xmlns="http://www.w3.org/2000/svg"
 width="1456.000000pt" height="1438.000000pt" viewBox="0 0 1456.000000 1438.000000"
 preserveAspectRatio="xMidYMid meet">
<metadata>
Created by potrace 1.16, written by Peter Selinger 2001-2019
</metadata>
<g transform="translate(0.000000,1438.000000) scale(0.100000,-0.100000)"
fill="#000000" stroke="none">
<path d="M5200 13238 c-167 -16 -295 -81 -417 -211 -97 -103 -145 -200 -169
-342 -22 -131 -14 -207 36 -355 65 -193 258 -364 470 -416 64 -15 229 -18 274
-5 17 5 51 15 76 22 53 15 135 54 169 80 13 11 28 19 32 19 5 0 9 -25 9 -56 0
-30 4 -85 10 -122 5 -37 16 -150 25 -252 24 -282 36 -369 49 -364 6 3 49 59
96 125 46 66 92 125 101 130 14 7 37 -21 133 -159 64 -92 122 -176 130 -187 8
-11 36 -52 63 -91 26 -39 118 -171 203 -293 85 -122 242 -347 347 -499 106
-152 196 -282 201 -287 5 -6 17 -24 28 -40 10 -17 102 -149 204 -295 102 -146
207 -298 233 -337 26 -40 50 -73 54 -73 5 0 30 16 56 36 l48 35 -87 127 c-48
70 -113 163 -144 207 -50 69 -446 634 -484 690 -8 11 -44 65 -82 120 -65 96
-126 186 -186 270 -16 22 -45 65 -66 95 -60 89 -251 364 -260 375 -5 6 -17 24
-28 40 -10 17 -68 99 -127 184 -60 85 -111 160 -114 167 -3 8 10 17 39 24 24
7 54 16 68 21 14 4 64 20 113 34 48 14 87 32 87 38 0 7 -31 25 -68 42 -89 39
-203 90 -277 125 -178 83 -255 119 -302 140 -29 13 -53 29 -53 35 0 6 16 27
36 46 77 74 142 181 180 298 21 63 25 96 26 191 0 123 -13 187 -60 290 -115
254 -385 406 -672 378z m232 -316 c91 -44 177 -136 206 -221 16 -45 15 -207
-1 -251 -34 -97 -112 -185 -205 -232 -41 -20 -61 -23 -162 -23 -112 0 -116 1
-173 34 -74 42 -147 115 -178 177 -21 44 -24 62 -24 169 0 107 3 125 25 170
29 60 112 146 160 167 95 42 121 48 211 43 60 -2 91 -10 141 -33z"/>
<path d="M8335 9119 c-160 -18 -453 -122 -526 -185 -8 -8 -20 -14 -26 -14 -6
0 -13 -3 -15 -7 -1 -5 -29 -27 -61 -51 -142 -106 -289 -282 -369 -443 -68
-136 -83 -176 -130 -354 -17 -67 -17 -398 0 -480 17 -78 59 -222 77 -260 48
-107 64 -138 109 -210 64 -101 79 -119 196 -235 86 -86 249 -209 307 -231 33
-12 32 -23 -27 -234 -5 -16 -11 -39 -14 -50 -9 -33 -66 -276 -77 -330 -6 -27
-15 -66 -19 -85 -5 -19 -12 -51 -15 -70 -4 -19 -13 -66 -20 -105 -24 -124 -43
-238 -59 -350 -9 -60 -21 -132 -26 -160 -14 -80 -29 -183 -41 -285 -6 -52 -15
-126 -20 -165 -29 -227 -51 -472 -78 -875 -51 -749 -58 -1026 -60 -2247 -2
-911 -2 -922 18 -932 21 -12 288 -15 315 -5 14 6 16 101 16 978 0 955 9 1481
30 1846 15 259 52 739 65 850 2 19 11 98 19 175 15 133 27 234 46 370 25 186
32 233 41 261 5 17 9 45 9 64 0 18 4 49 9 69 6 20 17 79 26 131 9 52 20 115
26 140 5 25 19 95 30 155 12 61 25 128 31 150 5 22 13 58 18 80 15 73 38 169
65 270 15 55 29 111 31 125 3 14 10 42 16 63 l11 38 76 -8 c289 -30 565 21
791 145 222 123 433 337 538 547 65 129 95 207 112 290 5 22 14 63 21 90 15
65 15 383 0 455 -7 30 -16 73 -20 95 -14 71 -49 168 -96 270 -108 232 -361
482 -605 597 -80 38 -95 43 -271 92 -124 33 -314 44 -474 25z"/>
<path d="M2600 8471 c-78 -15 -162 -52 -247 -107 -120 -80 -207 -193 -255
-334 -43 -124 -52 -196 -37 -300 22 -151 80 -278 174 -378 133 -143 293 -212
496 -213 194 -1 352 69 487 216 92 101 136 196 172 378 12 59 21 67 55 43 20
-13 74 -43 175 -99 30 -16 89 -49 130 -72 41 -23 113 -62 160 -87 47 -25 102
-55 123 -68 21 -12 41 -20 44 -16 3 3 -4 32 -17 63 -48 124 -80 219 -80 240
l0 23 1413 2 1412 3 3 39 c2 22 1 50 -2 63 l-6 23 -1415 0 c-879 0 -1415 4
-1415 9 0 6 16 58 36 118 20 59 40 122 44 138 4 17 11 38 15 48 9 23 -10 22
-43 -2 -15 -10 -47 -29 -72 -43 -25 -14 -79 -46 -120 -71 -89 -54 -421 -247
-425 -247 -1 0 -8 21 -14 48 -27 107 -45 161 -77 228 -74 156 -232 288 -403
338 -64 19 -247 29 -311 17z m250 -298 c98 -36 174 -104 223 -198 29 -56 31
-67 31 -165 0 -96 -2 -110 -29 -165 -39 -77 -114 -154 -190 -190 -55 -27 -70
-30 -165 -30 -98 0 -109 2 -160 30 -74 40 -149 117 -185 190 -28 55 -30 68
-30 165 0 94 3 111 27 161 38 78 102 144 178 184 60 31 72 34 160 34 65 1 108
-4 140 -16z"/>
<path d="M10212 7500 c-17 -21 -32 -45 -32 -52 0 -7 23 -31 51 -53 28 -22 56
-45 63 -51 6 -5 45 -36 86 -66 107 -81 224 -171 230 -177 3 -3 32 -26 65 -51
90 -68 496 -380 531 -409 17 -14 55 -44 84 -66 29 -22 57 -45 64 -50 6 -6 40
-33 74 -60 117 -92 292 -236 292 -240 0 -3 -66 -48 -147 -102 l-148 -97 80
-13 c113 -19 182 -30 320 -48 66 -9 134 -21 151 -26 17 -5 44 -9 60 -10 37 0
141 -22 149 -31 4 -4 -6 -29 -22 -55 -32 -51 -73 -158 -92 -236 -19 -80 -10
-236 19 -312 48 -126 88 -193 162 -268 66 -66 106 -95 183 -131 93 -44 95 -45
173 -61 292 -60 589 84 721 349 64 129 92 287 71 403 -36 201 -123 347 -265
448 -276 197 -619 175 -863 -54 -24 -23 -46 -41 -50 -41 -4 0 -13 15 -21 33
-19 43 -42 98 -52 122 -89 227 -113 286 -126 315 -8 19 -31 77 -51 129 -20 52
-42 96 -48 98 -6 2 -23 -35 -38 -84 -46 -146 -50 -158 -58 -167 -4 -6 -8 -18
-8 -28 0 -37 17 -49 -534 380 -44 35 -99 78 -122 95 -23 18 -157 122 -298 232
-370 288 -585 452 -611 467 -6 4 -25 -11 -43 -32z m2703 -1659 c149 -74 232
-239 205 -409 -14 -86 -44 -145 -104 -206 -88 -90 -251 -144 -353 -116 -136
37 -232 111 -281 218 -23 50 -26 69 -26 162 0 96 2 110 29 164 103 206 329
286 530 187z"/>
<path d="M9452 6387 l-42 -43 62 -60 c35 -32 93 -86 128 -118 36 -33 108 -101
160 -150 53 -50 125 -118 160 -150 36 -33 101 -94 145 -136 44 -41 143 -134
220 -205 77 -72 178 -166 225 -211 47 -44 107 -100 135 -125 27 -24 84 -76
125 -115 41 -39 136 -126 210 -194 169 -155 360 -332 465 -431 96 -91 337
-314 495 -459 155 -141 290 -272 290 -280 0 -4 -26 -21 -57 -39 -32 -17 -85
-47 -118 -66 -33 -19 -71 -40 -85 -46 -35 -15 -20 -21 135 -58 126 -30 177
-43 240 -61 17 -5 57 -14 90 -20 106 -21 244 -55 252 -63 3 -3 -12 -34 -34
-69 -54 -86 -70 -124 -93 -215 -40 -159 -18 -322 63 -473 122 -225 332 -349
593 -350 50 0 104 4 120 9 16 5 56 17 89 27 91 27 172 79 260 168 84 85 124
152 167 276 18 53 22 88 22 190 0 111 -3 134 -27 202 -69 195 -220 359 -384
415 -118 41 -136 44 -241 44 -114 0 -198 -16 -289 -56 -56 -25 -161 -93 -182
-119 -25 -29 -37 -17 -60 62 -38 125 -54 176 -62 197 -5 11 -31 92 -60 180
-47 147 -99 295 -104 295 -1 0 -19 -42 -39 -92 -52 -128 -51 -127 -75 -180
-12 -27 -24 -48 -26 -48 -7 0 -59 46 -165 145 -41 39 -97 90 -125 115 -27 24
-104 93 -169 154 -65 61 -128 119 -139 129 -25 21 -357 330 -477 442 -84 79
-277 257 -395 365 -33 30 -62 57 -65 60 -3 3 -34 32 -70 64 -36 33 -105 98
-155 146 -49 47 -148 139 -220 205 -71 65 -159 146 -195 179 -36 34 -99 92
-140 130 -41 39 -111 104 -155 146 -135 128 -354 330 -358 330 -1 0 -22 -19
-45 -43z m3878 -3099 c19 -7 57 -26 83 -41 210 -124 246 -412 76 -592 -185
-196 -507 -152 -620 85 -109 228 -11 460 233 551 59 22 163 21 228 -3z"/>
</g>
</svg>
